<svg xmlns="http://www.w3.org/2000/svg" width="160" height="112" viewBox="0 0 160 112">
  <defs>
    <style>
      .a, .b {
        fill: #a7a7a7;
      }

      .a {
        opacity: 0.6;
      }
    </style>
  </defs>
  <title>logo</title>
  <g>
    <path class="a" d="M65.66163,35.5663c-3.27969,3.52769-6.0497,5.10627-12.707,7.88857L54.706,46.82544a43.25721,43.25721,0,0,0,9.31577-4.94811,30.34669,30.34669,0,0,0,9.88868-12.47269,32.42227,32.42227,0,0,0,2.06407-7.80755,36.57271,36.57271,0,0,0,6.03567,12.75939c3.74327,5.14035,8.57766,8.85692,14.98051,12.08963l2.13248-3.39244c-6.99379-3.7392-10.55945-6.015-14.18655-10.78539a33.6325,33.6325,0,0,1-6.76317-14.49785l20.13586.00323V16.2383h.00126V13.18279H93.77064l-.47947,1.30669v.02037H77.17907c0-1.53012-.10645-5.6119-.0467-9.5435l1.72042-.43861V1.37766H73.4726v.00072l-.00452-.00072c-.04968,7.50347.14413,10.797-.00474,13.13219H53.28157V17.7817l19.88328-.01127c-.04971.24854-.04971.35372-.09945.65175C72.171,25.52846,69.73629,31.19334,65.66163,35.5663Z"/>
    <polygon class="a" points="159.616 75.421 155.661 75.428 155.036 76.66 155.034 76.66 155.034 76.67 147.822 76.67 147.822 64.641 149.396 64.081 149.396 61.125 144.466 61.125 144.466 64.641 144.466 76.67 134.074 76.67 134.074 79.67 144.466 79.67 144.466 106.309 147.822 106.309 147.822 79.67 159.623 79.67 159.616 75.421"/>
    <path class="a" d="M127.50715,90.36428l-12.16592-.00681v14.97236H130.8159V92.22377l.69012-.57389.00028-2.02242h-3.655Zm-.03917,12.02153H118.5832v-9.0602H127.468Z"/>
    <rect class="a" x="115.54379" y="76.6479" width="15.10943" height="3.06075"/>
    <rect class="a" x="113.06045" y="70.13901" width="20.43712" height="3.13911"/>
    <rect class="a" x="115.54379" y="83.28831" width="15.1137" height="3.08632"/>
    <polygon class="a" points="126.14 63.571 126.14 63.578 115.687 63.571 115.687 66.613 131.071 66.613 131.071 62.143 126.767 62.143 126.14 63.571"/>
    <path class="a" d="M95.83875,85.87408l.00151-.00054.53121-1.41991h.00176l.80657-.80658V81.90354H92.51917l-.25882,1.08577V82.992l-17.73989-.00273v3.1333h3.57637a31.38405,31.38405,0,0,0,2.583,6.97452,24.21352,24.21352,0,0,0,3.2,4.69951,46.98723,46.98723,0,0,1-11.6949,6.38594l2.34273,2.775a48.08712,48.08712,0,0,0,11.56382-6.87586c3.287,2.927,7.4092,4.70478,11.98877,6.67025l2.18059-2.73765c-4.01017-1.58278-8.855-3.58738-11.88987-5.97561C91.70742,94.78064,94.13277,90.16222,95.83875,85.87408Zm-3.5784.24853a26.28465,26.28465,0,0,1-6.13079,9.71851,25.2635,25.2635,0,0,1-4.861-9.71851Z"/>
    <path class="a" d="M94.5185,75.63164c-1.88865,0-2.03748-.04971-2.03748-1.59013V67.43227c0-.6809.03825-1.84949.07917-2.87287l.72492-.72487v-1.611H89.04445l-.26284.86508H78.08452c.09468,2.84284.09493,3.42325.09493,4.791,0,3.5282-.29852,5.32995-1.193,6.92007-.84477,1.54064-1.362,2.1487-4.65915,3.834l1.875,2.84381c2.633-1.493,4.31826-2.74515,5.45926-4.57129,1.34184-2.13661,1.89687-4.30568,1.89687-9.22539V66.09068h7.59263v9.839a2.25275,2.25275,0,0,0,1.193,2.33573c.84452.39737,1.34159.49682,3.92589.49682,3.67728,0,4.8233-.34773,5.61865-1.441.59043-.73807.74234-1.67547.98636-5.40928H97.647C97.61286,75.53749,97.4419,75.63164,94.5185,75.63164Z"/>
    <rect class="a" x="54.49578" y="76.72095" width="14.82022" height="2.98898"/>
    <rect class="a" x="52.73372" y="70.15887" width="19.39001" height="3.0818"/>
    <polygon class="a" points="64.805 63.43 64.805 63.437 54.496 63.43 54.496 66.386 69.737 66.386 69.737 62.002 65.432 62.002 64.805 63.43"/>
    <polygon class="a" points="54.496 86.452 69.316 86.43 69.316 83.463 54.496 83.463 54.496 86.452"/>
    <path class="a" d="M119.46211,12.87561V21.513h12.27773a62.629,62.629,0,0,1-16.25677,6.09134l.96753,2.85313c5.73338-1.37322,13.4294-4.51982,16.14069-6.35042.10475-.07073.19864-.13541.30022-.20438a25.56695,25.56695,0,0,1,1.8225,2.61536c-4.76466,3.22214-10.867,6.05007-20.04559,8.19215l.95774,2.83606a63.39707,63.39707,0,0,0,20.4579-8.53981,26.49959,26.49959,0,0,1,1.195,3.02579,44.88115,44.88115,0,0,1-10.30012,5.6275,83.32083,83.32083,0,0,1-13.65236,4.34685l.93719,2.994c9.21933-2.18011,17.84862-5.78534,23.83574-9.83132a13.22509,13.22509,0,0,1,.25183,2.38631c0,2.93171-.239,4.52181-1.38175,5.26716-.69615.49707-1.31347.73785-3.24376.91255-1.34988.12226-2.85668.14159-2.85668.14159l.57238,3.41a17.07715,17.07715,0,0,0,6.5548-1.13052c2.43492-1.19243,3.63467-3.731,3.63467-7.35864a26.06828,26.06828,0,0,0-1.50078-8.281c.5512-.20552,1.12936-.43108,1.71888-.66688a47.88553,47.88553,0,0,0,16.33886,12.66541l1.75305-2.67015a50.26039,50.26039,0,0,1-15.614-11.0403,52.37973,52.37973,0,0,0,5.8209-3.021l2.47735-.45565v-2.2559h-3.86911a47.10752,47.10752,0,0,1-9.57375,5.26644,24.71281,24.71281,0,0,0-4.04686-5.99569q.62492-.4469,1.13937-.83h17.10248V12.50955l.06628-.02717.69235-.44586V10.20417h-3.98958l-.42983,1.11436v.00452c0-.0017-4.21674-.00182-9.50129-.00135,1.21494-1.13564,5.08092-5.426,5.08092-5.426V3.1769h-4.53765l-.31607,1.1839H129.83933l1.31651-1.46309,1.36265-.424V.53436h-4.25221v.0005l-.00151-.0005a37.93037,37.93037,0,0,1-14.93872,12.16043l1.61727,2.761C116.07921,14.89919,117.87782,13.84744,119.46211,12.87561Zm3.27941,5.90327V14.05822H134.8422v4.72066Zm27.40492-4.72066v4.72066H137.9732V14.05822ZM127.15518,6.99455h12.95094c-.85092,1.00641-2.62565,3.15545-3.83058,4.32759-5.45431.00069-11.20231.00179-14.36489.00241.24857-.1649.45408-.30511.59539-.40741A44.03009,44.03009,0,0,0,127.15518,6.99455Z"/>
    <path class="b" d="M16.88089,90.97906v2.35l-1.66644.38235v17.816H1.57916v-4.208H4.14735l.32837,1.50276h7.73271v-4.28987a7.21971,7.21971,0,0,1-4.18092,1.2841,7.67823,7.67823,0,0,1,0-15.35646,7.16107,7.16107,0,0,1,4.61824,1.63958V90.97906Zm-4.23514,7.15906A4.68633,4.68633,0,0,0,8.08224,93.247a4.89624,4.89624,0,0,0,0,9.78224A4.68633,4.68633,0,0,0,12.64575,98.13812Z"/>
    <path class="b" d="M42.56837,98.13812a7.67848,7.67848,0,1,1-7.67848-7.67823A7.70287,7.70287,0,0,1,42.56837,98.13812ZM34.88989,93.247a4.89921,4.89921,0,1,0,4.61774,4.89112A4.67791,4.67791,0,0,0,34.88989,93.247Z"/>
    <path class="b" d="M67.9541,93.68432v8.96233l1.83063.35523v2.35H65.3854V104.1223a7.16845,7.16845,0,0,1-4.69957,1.69405,7.67823,7.67823,0,0,1,0-15.35646A7.1684,7.1684,0,0,1,65.3854,92.154V90.97906h4.39933v2.35Zm-2.65054,4.4538a4.686,4.686,0,0,0-4.5635-4.89112,4.89624,4.89624,0,0,0,0,9.78224A4.686,4.686,0,0,0,65.30356,98.13812Z"/>
  </g>
</svg>
